# xmcd
#
# Track frame offsets:
#	150
#	23292
#	40885
#	59182
#	76370
#	98405
#	114195
#	131305
#	151790
#	172940
#	189787
#	208062
#	222947
#	243842
#	259882
#	284272
#	297637
#	311062
#	330447
#
# Disc length: 4529 seconds
#
# Revision: 3
# Processed by: cddbd v1.5.2PL0 Copyright (c) Steve Scherf et al.
# Submitted via: EasyCDDAExtractor 15.3.0.1
#
DISCID=fe11af13
DTITLE=Varios Artistas - No. 1 Un Año De Exitos
DYEAR=2001
DGENRE=Latin
TTITLE0=Alejandro Sanz - Cuando Nadie Me Ve
TTITLE1=OV7 - Shabadabada
TTITLE2=Alejandro Fernandez - Quisiera
TTITLE3=Miguel Bose and Ana Torroja - Corazones
TTITLE4=Ricky Martin - Bella
TTITLE5=Son By 4 - A Puro Dolor
TTITLE6=Laura Pausini - Entre Tu Y Mil Mares
TTITLE7=Ricardo Arjona - Cuando
TTITLE8=La Ley - Fuera De Mi
TTITLE9=Julio Iglesias - Gozar La Vida
TTITLE10=Edith Marquez - Un Segundo
TTITLE11=Cafe Quijano - La Lola
TTITLE12=Chayanne - Dejaria Todo
TTITLE13=Shakira - Tu
TTITLE14=Fito Paez - Al Lado Del Camino
TTITLE15=Francisco Cespedes - Donde Esta La Vida
TTITLE16=Lucero - Mi Destino Eres Tu
TTITLE17=Nek - Llegas Tu
TTITLE18=Azul Azul - La Bomba
EXTD=
EXTT0=
EXTT1=
EXTT2=
EXTT3=
EXTT4=
EXTT5=
EXTT6=
EXTT7=
EXTT8=
EXTT9=
EXTT10=
EXTT11=
EXTT12=
EXTT13=
EXTT14=
EXTT15=
EXTT16=
EXTT17=
EXTT18=
PLAYORDER=
